<?xml version="1.0" standalone="no"?>
<!DOCTYPE svg PUBLIC "-//W3C//DTD SVG 20010904//EN"
 "http://www.w3.org/TR/2001/REC-SVG-20010904/DTD/svg10.dtd">
<svg version="1.0" xmlns="http://www.w3.org/2000/svg"
 width="342.000000pt" height="147.000000pt" viewBox="0 0 342.000000 147.000000"
 preserveAspectRatio="xMidYMid meet">

<g transform="translate(0.000000,147.000000) scale(0.100000,-0.100000)"
fill="#000000" stroke="none">
<path d="M110 1282 l-30 -30 0 -567 0 -566 25 -24 24 -25 365 0 365 0 20 26
c29 36 27 75 -5 105 l-26 24 -304 3 -304 3 0 513 c0 571 3 549 -67 562 -27 5
-37 1 -63 -24z"/>
<path d="M1109 1281 c-36 -36 -37 -73 -4 -106 l24 -25 361 0 361 0 24 25 c27
26 32 70 12 96 -28 37 -49 39 -402 39 l-347 0 -29 -29z"/>
<path d="M2608 1300 c-251 -42 -454 -228 -514 -469 -24 -97 -16 -254 19 -351
69 -192 242 -348 439 -395 82 -19 238 -19 313 0 317 80 524 402 461 716 -27
131 -74 219 -170 315 -63 63 -100 90 -166 123 -123 60 -257 82 -382 61z m211
-161 c163 -37 313 -187 350 -350 35 -152 -11 -310 -124 -425 -188 -190 -486
-192 -674 -3 -247 247 -148 652 189 766 72 25 183 30 259 12z"/>
<path d="M1134 760 c-28 -11 -54 -48 -54 -78 0 -12 11 -34 25 -47 l24 -25 361
0 361 0 24 25 c32 31 32 66 1 102 l-24 28 -349 2 c-191 1 -358 -2 -369 -7z"/>
<path d="M1134 220 c-28 -11 -54 -48 -54 -78 0 -12 11 -34 25 -47 l24 -25 365
0 365 0 20 26 c28 35 26 67 -3 101 l-24 28 -349 2 c-191 1 -358 -2 -369 -7z"/>
</g>
</svg>
